<svg width="37" height="36" viewBox="0 0 37 36" fill="none" xmlns="http://www.w3.org/2000/svg">
<path d="M15.4027 1.19271C17.319 0.0863382 19.6799 0.0863377 21.5962 1.19271L31.5066 6.91444C33.4229 8.02081 34.6033 10.0655 34.6033 12.2782V23.7217C34.6033 25.9344 33.4229 27.9791 31.5066 29.0855L21.5962 34.8072C19.6799 35.9136 17.319 35.9136 15.4027 34.8072L5.49235 29.0855C3.57606 27.9791 2.39558 25.9344 2.39558 23.7217V12.2782C2.39558 10.0655 3.57606 8.02081 5.49235 6.91444L15.4027 1.19271Z" fill="url(#paint0_linear_5217_34756)"/>
<mask id="mask0_5217_34756" style="mask-type:alpha" maskUnits="userSpaceOnUse" x="2" y="0" width="33" height="36">
<path d="M15.4027 1.19271C17.319 0.0863382 19.6799 0.0863377 21.5962 1.19271L31.5066 6.91444C33.4229 8.02081 34.6033 10.0655 34.6033 12.2782V23.7217C34.6033 25.9344 33.4229 27.9791 31.5066 29.0855L21.5962 34.8072C19.6799 35.9136 17.319 35.9136 15.4027 34.8072L5.49235 29.0855C3.57606 27.9791 2.39558 25.9344 2.39558 23.7217V12.2782C2.39558 10.0655 3.57606 8.02081 5.49235 6.91444L15.4027 1.19271Z" fill="#83E1E1"/>
</mask>
<g mask="url(#mask0_5217_34756)">
<path d="M7.56987 14.0314L-3.05766 20.6564L-12.2647 26.8436C-12.6071 27.0737 -12.8125 27.4592 -12.8125 27.8717V57.2177C-12.8125 57.9018 -12.2579 58.4564 -11.5738 58.4564H49.7036C50.3877 58.4564 50.9423 57.9018 50.9423 57.2177V31.0056C50.9423 30.5813 50.7251 30.1865 50.3667 29.9593L19.3472 10.3004C18.8574 9.98998 18.2178 10.0609 17.8079 10.4711L12.4644 15.8188C11.9805 16.303 11.1957 16.303 10.7119 15.8188L9.10139 14.2071C8.69394 13.7993 8.05906 13.7265 7.56987 14.0314Z" fill="url(#paint1_linear_5217_34756)"/>
<path d="M7.95467 16.875L1.625 21.975H6.47115C6.94588 21.975 8.71291 24.575 9.53709 25.875L10.625 19.775L7.95467 16.875Z" fill="url(#paint2_linear_5217_34756)"/>
<path d="M15.1468 19.125L18.5 13.5L32 21.375L28.908 22.7465L21.3125 22.5L14 29.25L17.375 21.375L15.1468 19.125Z" fill="url(#paint3_linear_5217_34756)"/>
</g>
<defs>
<linearGradient id="paint0_linear_5217_34756" x1="18.4995" y1="-0.595215" x2="18.4995" y2="36.5951" gradientUnits="userSpaceOnUse">
<stop stop-color="#22AFFF"/>
<stop offset="1" stop-color="#1D41FF"/>
</linearGradient>
<linearGradient id="paint1_linear_5217_34756" x1="19.0649" y1="9.76929" x2="19.0649" y2="58.4564" gradientUnits="userSpaceOnUse">
<stop stop-color="#1B3573"/>
<stop offset="1" stop-color="#131E39"/>
</linearGradient>
<linearGradient id="paint2_linear_5217_34756" x1="10.0625" y1="18" x2="-2.875" y2="37.125" gradientUnits="userSpaceOnUse">
<stop stop-color="#FCFCFD"/>
<stop offset="1" stop-color="white" stop-opacity="0"/>
</linearGradient>
<linearGradient id="paint3_linear_5217_34756" x1="19.0625" y1="13.5" x2="30.875" y2="56.25" gradientUnits="userSpaceOnUse">
<stop stop-color="white"/>
<stop offset="1" stop-color="#192E5F"/>
</linearGradient>
</defs>
</svg>
